# xmcd
# 
# Track frame offsets:
#     150
#     17590
#     36922
#     78557
# 
# Disc length: 1310
# 
# Revision: 4
# Processed by: cddbd v1.5.2PL0 Copyright (c) Steve Scherf et al.
# Submitted via: fre:ac v1.0.31
# 
DISCID=26051c04
DTITLE=Mariah Carey - My All
DYEAR=1997
DGENRE=R&B
TTITLE0=My All [Album Version]
TTITLE1=My All [Classic Radio Club Mix]
TTITLE2=My All [Classic Club Mix]
TTITLE3=The Roof [Mobb Deep Edit]
EXTD=
EXTT0=
EXTT1=
EXTT2=
EXTT3=
PLAYORDER=
